<svg xmlns="http://www.w3.org/2000/svg" xmlns:xlink="http://www.w3.org/1999/xlink"><defs><clipPath id="a"><path fill="#fff" d="M0 0h27v34H0z"/></clipPath><clipPath id="a"><path fill="#fff" d="M0 0h36v50H0z"/></clipPath><clipPath id="a"><path fill="#fff" transform="translate(15 14)" d="M0 0h30v32H0z"/></clipPath></defs><symbol id="icon-academy"><g clip-path="url(#a)"><path d="M13.643.016 13.5 0 0 1.407v24.606L13.5 34 27 26.013V1.407L13.643.016Zm11.591 25L13.5 31.956 1.766 25.015V14.93l11.685 6.916.02 1.253-8.017-4.743-.011 1.225 8.046 4.809.02 1.286-8.045-4.758-.01 1.226L13.5 26.95l8.124-4.833V16.91l3.62-2.15-.01 10.256Zm0-11.564-3.22 1.88-1.482.875-7.065-4.187-.011 1.225 6.04 3.573-.053.031-.13.076-.86.492-4.986-2.948-.011 1.225 3.936 2.328-.933.61-.021.012-2.971-1.742-.011 1.225 1.947 1.135-1.988 1.186-11.618-6.872 11.638-6.958 11.8 6.834Zm0-1.225L13.44 5.31 1.766 12.22V2.99L13.5 1.764 25.234 2.99v9.237Z"/></g></symbol><symbol id="icon-cat-gain"><g fill="none"><path d="M123.118 5.757a15.207 15.207 0 0 1 4.5-4.6c1-.7 1.6-.7 2.2.6.8 1.9 1.5 3.9.9 6a2.288 2.288 0 0 0 .4 2.1c.6.8 1.1 1.6 1.6 2.3a6.266 6.266 0 0 1 .9 6.2 5.437 5.437 0 0 0-.2 3.1c.2.99.2 2.01 0 3a3.752 3.752 0 0 1-2.7 3.2 5.212 5.212 0 0 0-3.2 2 1.05 1.05 0 0 1-.9.5c-1.2.2-4.2-2.5-4.2-3.7v-.6c.1-3.6-.1-3.9-3.4-5.4a4.399 4.399 0 0 1-1.8-1.2c-.6-.8-1.4-.7-2.3-.4-.9.3-1.4.9-1.3 1.9.302 2.42.402 4.862.3 7.3.007.278.075.551.2.8 3.1 4.5 4.3 9.8 5.8 14.9 1.2 3.9 3.4 6 7.4 6.3.64.05 1.276.151 1.9.3a4.164 4.164 0 0 1 3.4 3.2c.7 2.1.3 2.6-1.8 2.6h-6.5a3.242 3.242 0 0 1-2.3-.8 11.71 11.71 0 0 0-3.4-2 7.263 7.263 0 0 1-3.4-2.6 28.581 28.581 0 0 0-4-4.5c-2.8-2.9-5.8-5.7-8.4-8.7a11.382 11.382 0 0 1-3.2-7.6c0-.9-.2-1.3-1.2-.9-.3.19-.645.294-1 .3-2.8 0-4.2 1.7-5.2 4.2-.9 2.1-2.1 4.1-3.2 6.2a10.39 10.39 0 0 0-1 4.2c0 2.4.6 3.2 2.8 4 1.4.5 2.7 1 3.4 2.4.8 1.6.6 2-1.1 2.1h-6.8a1.88 1.88 0 0 1-1.9-1.1l-1.8-3a6.049 6.049 0 0 1-.7-5.4 11.86 11.86 0 0 0 .1-5.3 8.42 8.42 0 0 1 1.7-7c.6-.7.6-1-.4-1.2a50.068 50.068 0 0 1-11.8-4.1.1.1 0 0 1-.1-.1c-3.2-1.2-3.8-1-4.7 2.3-.8 2.8-1.6 5.6-2.2 8.5-.7 3.2.1 6.2 1.1 9.2.4 1.2 1.6 1.1 2.5 1.4 2 .6 3.7 1.4 4.5 3.5.7 1.6.6 1.8-1.1 1.8-1.7 0-3.4-.1-5.2 0a6.641 6.641 0 0 1-4.2-1.4c-4.8-3.2-6.2-8.1-6.6-13.4-.2-3.3-2-5.9-4.1-8.4-.4-.5-.8-.7-1.4-.3a44.322 44.322 0 0 1-6.7 3 26.71 26.71 0 0 0-12.2 8.8 10.63 10.63 0 0 0-2.2 5.1c-.3 1.8.2 2.6 2 3.1s2.7 1.5 2.9 3.4c.1.8-.2 1.2-1 1.2h-8.1a1.65 1.65 0 0 1-1.3-.8 8.56 8.56 0 0 1-1.9-5.5c-.052-3.455.25-6.907.9-10.3a6.3 6.3 0 0 1 3.4-4.8c5.9-2.8 9-8.1 11.8-13.6.6-1.1.1-1.3-.9-1.2a16.47 16.47 0 0 0-7.7 3.2 70.622 70.622 0 0 0-8.3 7.1 16.67 16.67 0 0 1-10.3 4.9c-7.3.4-10.7-3.7-10.4-10.3a9.69 9.69 0 0 1 2.4-6.1 4.25 4.25 0 0 1 4.5-1.5c1.5.4 1.9 1.2 1.3 2.7-.3.6-.7 1.1-1 1.7a7.499 7.499 0 0 0-1 2c-1.1 3 .4 5.1 3.5 5.4 3.3.3 6-1.1 8.5-3.1a44.94 44.94 0 0 0 8-8.3 20.79 20.79 0 0 1 14.4-8.1c2.3-.3 4.3-1.3 6.5-1.9a41.51 41.51 0 0 1 12.7-1.8 13 13 0 0 0 5.8-1.1c4.9-2 10-2 15.1-1 4 .8 8 1.8 11.9 2.8a16.58 16.58 0 0 0 7-.2 67.793 67.793 0 0 1 13.4-2 18.16 18.16 0 0 1 8.6 1.7c2 .9 2 .9 1.5 2.8Z" fill="#000"/></g></symbol><symbol id="icon-cat-loose"><g fill="none"><g clip-path="url(#a)"><path d="M28.203 0h-.195c-.33.187-.593.474-.75.82a8.028 8.028 0 0 0-.664 1.757.84.84 0 0 1-.761.691 3.77 3.77 0 0 0-2.69 1.948c-.372.661-.69 1.35-.952 2.062-.73 1.897-1.29 3.856-1.98 5.768-.324.872-.339.872-1.316.872-1.168 0-1.085-.18-1.1 1.108 0 .407.123.613.555.593.133 0 .334-.067.385.108.052.175-.123.252-.226.355a4.626 4.626 0 0 1-2.227 1.258c-.977.263-1.975.47-2.926.789-2.443.82-4.7 1.964-6.46 3.902a14.44 14.44 0 0 0-2.437 4.041C2.57 30.526 1.656 35.217.946 39.954a97.064 97.064 0 0 0-.75 6.7C.102 47.759 0 48.877 0 50h17.141a1.126 1.126 0 0 0-.118-.66 2.577 2.577 0 0 0-1.97-1.582c-.36-.083-.401-.191-.18-.475.36-.482.637-1.022.818-1.597.838-2.48 1.162-5.067 1.568-7.63.23-1.956.83-3.85 1.77-5.582a11.126 11.126 0 0 1 2.874-3.283c.427-.325.443-.325.515.227.051.366.061.742.087 1.113a48.166 48.166 0 0 1-.092 7.31 31.866 31.866 0 0 0-.078 5.67A38.826 38.826 0 0 0 23.503 50h6.84a2.79 2.79 0 0 0-2.18-2.289 4.62 4.62 0 0 0-1.934.103c-.309.073-.438 0-.463-.335a29.113 29.113 0 0 1 .514-8.154 91.803 91.803 0 0 0 1.574-9.371 9.163 9.163 0 0 1 1.172-3.609c.612-1.092 1.147-2.226 1.749-3.324a3.031 3.031 0 0 0 .216-2.676c-.139-.366-.273-.737-.442-1.087-.515-1.005-1.029-2-1.502-3.016-.252-.515-.196-.577.365-.593.838 0 .838 0 .854-.845v-.34c0-.356-.134-.552-.515-.516h-.781c-.355 0-.458-.149-.37-.515a3.217 3.217 0 0 1 2.638-2.284 11.291 11.291 0 0 1 3.404.222.513.513 0 0 0 .643-.33c.206-.515.432-1.03.664-1.546a.517.517 0 0 0-.052-.588c-1.646-2.093-3.43-4.046-5.863-5.299a.767.767 0 0 1-.452-.577 10.123 10.123 0 0 0-.653-2.144A1.803 1.803 0 0 0 28.203 0Z" fill="#000"/></g></g></symbol><symbol id="icon-email"><g fill="none"><path d="M1.5 8.5v8h17v-8m-17-5h17v2l-8.5 6-8.5-6v-2Z"/></g></symbol><symbol id="icon-gift"><g fill="none"><path d="M65.657 36.015H14.391c-1.8 0-3.263-1.471-3.263-3.279v-9.823a3.275 3.275 0 0 1 3.263-3.28h51.265c1.8 0 3.262 1.472 3.262 3.28v9.824a3.273 3.273 0 0 1-3.26 3.278ZM14.391 22.146a.775.775 0 0 0-.763.767v9.824c0 .422.342.765.763.765h51.265c.42 0 .762-.343.762-.765v-9.824a.774.774 0 0 0-.762-.767H14.391Z" fill="#fff"/><path d="M58.508 69.667h-36.97c-3.464 0-6.282-2.832-6.282-6.314V34.758c0-.693.56-1.256 1.25-1.256s1.25.563 1.25 1.256v28.595c0 2.096 1.697 3.801 3.782 3.801h36.97c2.084 0 3.78-1.705 3.78-3.801V34.758c0-.693.56-1.256 1.25-1.256s1.25.563 1.25 1.256v28.595c0 3.482-2.817 6.314-6.28 6.314Z" fill="#fff"/><path d="M40.023 69.667c-.69 0-1.25-.562-1.25-1.256V34.758c0-.693.56-1.256 1.25-1.256s1.25.563 1.25 1.256V68.41c0 .695-.56 1.257-1.25 1.257ZM24.422 22.142c-3.913-2.131-5.373-7.064-3.255-10.998 2.117-3.931 7.024-5.4 10.938-3.272 5.964 3.247 9.184 12.305 9.317 12.689l-2.358.833c-.03-.085-3.038-8.53-8.148-11.312-2.703-1.469-6.09-.455-7.55 2.259-1.462 2.716-.454 6.12 2.248 7.591l-1.192 2.21Z" fill="#fff"/><path d="m55.622 22.142-1.19-2.21a5.564 5.564 0 0 0 2.688-3.328 5.584 5.584 0 0 0-.441-4.263A5.533 5.533 0 0 0 53.37 9.64a5.508 5.508 0 0 0-4.24.442c-5.11 2.782-8.118 11.226-8.148 11.311l-2.358-.833c.134-.384 3.353-9.442 9.316-12.688a7.978 7.978 0 0 1 6.144-.641 8.02 8.02 0 0 1 4.794 3.913 8.092 8.092 0 0 1 .639 6.176 8.061 8.061 0 0 1-3.895 4.822ZM63.538 52.84H16.506c-.69 0-1.25-.562-1.25-1.255 0-.694.56-1.256 1.25-1.256h47.032c.69 0 1.25.562 1.25 1.256 0 .693-.56 1.256-1.25 1.256Z" fill="#fff"/></g></symbol><symbol id="icon-more"><g fill="none"><path stroke="#D3D3D3" stroke-width="2" d="M31 0v60M60 31H0"/></g></symbol><symbol id="icon-name"><g fill="none"><path d="M1.218 16.47a6.795 6.795 0 0 1-1.2-4.336V5.866A6.9 6.9 0 0 1 1.2 1.488C1.996.49 3.354-.006 5.275 0c1.921.006 3.222.443 3.902 1.312a5.514 5.514 0 0 1 1.14 3.752v1.47h-3.55V4.94a8.149 8.149 0 0 0-.111-1.254 1.39 1.39 0 0 0-.403-.794 1.348 1.348 0 0 0-.987-.309 1.281 1.281 0 0 0-.744.116c-.23.112-.42.29-.542.511a4.465 4.465 0 0 0-.292 1.838v7.956c-.039.63.076 1.26.335 1.838.124.209.307.378.528.486.221.109.47.152.715.124.242.034.488-.008.704-.12.215-.11.39-.285.497-.498.208-.588.298-1.21.266-1.83v-1.671h3.55v1.445A5.942 5.942 0 0 1 9.23 16.63C8.474 17.549 7.17 18 5.318 18c-1.853 0-3.302-.501-4.1-1.53ZM15.155.242h4.066l3.43 17.55h-3.379l-.609-3.878h-2.847l-.686 3.852H11.7L15.155.242Zm3.13 11.466-1.08-7.053-1.072 7.052h2.153ZM25.285 2.883h-2.779V.243H31.7v2.64h-2.745v14.883h-3.679l.009-14.883Z" fill="#111"/><path d="M38.913.242h6.973v1.822h-4.46v5.791h3.62v1.73h-3.62v6.426h4.503v1.755h-7.016V.242ZM47.953.242h1.715l5.146 11.641V.243h2.093V17.79h-1.604L50.157 5.825v11.941H48.03L47.953.242ZM59.678.242h6.964v1.822h-4.46v5.791h3.653v1.73h-3.619v6.426h4.477v1.755h-7.015V.242ZM68.709.242h3.62a6.119 6.119 0 0 1 4.004 1.095c.858.727 1.278 1.914 1.278 3.56 0 2.228-.74 3.59-2.221 4.086l2.573 8.783h-2.436L73.17 9.543h-1.947v8.223h-2.513V.242Zm3.43 7.521a3.382 3.382 0 0 0 2.316-.635c.27-.31.471-.672.592-1.061.12-.39.159-.8.111-1.203a4.775 4.775 0 0 0-.248-1.672 1.574 1.574 0 0 0-.335-.536 1.62 1.62 0 0 0-.523-.366 4.178 4.178 0 0 0-1.758-.293h-1.106v5.8l.951-.034ZM80.99 16.47A7.571 7.571 0 0 1 79.903 12V6.15c-.03-1.128.115-2.255.428-3.342A3.75 3.75 0 0 1 81.823.794a5.173 5.173 0 0 1 2.881-.702 4.622 4.622 0 0 1 1.933.232A4.53 4.53 0 0 1 88.29 1.33a5.74 5.74 0 0 1 1.098 3.869v.652H87.03v-.544c.016-.65-.036-1.299-.155-1.938a1.666 1.666 0 0 0-.652-1.028 2.627 2.627 0 0 0-1.475-.343 2.2 2.2 0 0 0-1.552.468 2.122 2.122 0 0 0-.66 1.237 12.062 12.062 0 0 0-.146 2.08v6.51c-.068.99.105 1.98.506 2.892.233.28.528.505.863.657a2.482 2.482 0 0 0 2.135-.042c.329-.165.614-.401.835-.69a6.622 6.622 0 0 0 .524-3.05v-1.237H84.97v-1.73h4.546v8.674h-1.553l-.248-2.014a3.086 3.086 0 0 1-1.2 1.659 3.225 3.225 0 0 1-2 .572 4.09 4.09 0 0 1-1.961-.315 3.982 3.982 0 0 1-1.563-1.197ZM94.73 11.582 90.847.242h2.332L95.931 8.7l2.71-8.457H101l-3.86 11.34v6.184h-2.4l-.01-6.184Z" fill="#444"/></g></symbol><symbol id="icon-phone"><g fill="none"><path d="M10 10h8.5m0 0L16 7.5m2.5 2.5L16 12.5m-7.5-10v5h-3v5h3v5H6c-1.5 0-2.5-1-2.5-2.5V5c0-1.5 1-2.5 2.5-2.5h2.5Z"/></g></symbol><symbol id="icon-slider-button"><path d="m16 11-8 9 8 9V11ZM32 20l-8-9v18l8-9Z"/></symbol><symbol id="icon-telegram"><path fill-rule="evenodd" clip-rule="evenodd" d="M23.46 3.153c.18.15.265.382.227.611l-2.626 15.757a.657.657 0 0 1-1.012.439l-7.878-5.253a.657.657 0 0 1-.149-.956l2.611-3.263-4.36 2.906a.657.657 0 0 1-.658.041L4.363 10.81a.657.657 0 0 1 .073-1.205l18.383-6.566a.657.657 0 0 1 .642.115Zm-17.134 7.17 3.536 1.768 7.561-5.041a.656.656 0 0 1 .877.956l-4.805 6.006 6.438 4.292L22.208 4.65 6.326 10.323Z"/></symbol><symbol id="icon-vk"><path d="M1 5.339c0-.855.515-1.316 1.545-1.383l3.97.025a.52.52 0 0 1 .533.377c.409 1.257.866 2.343 1.372 3.257.506.913 1.168 1.965 1.985 3.156.071.15.187.226.346.226.125 0 .223-.059.293-.176l.08-.277.027-4.35c0-.302-.075-.503-.226-.604-.151-.1-.431-.176-.84-.226-.32-.05-.48-.235-.48-.553 0-.067.01-.118.027-.151.373-1.09 1.44-1.635 3.198-1.635L14.322 3c.675 0 1.234.16 1.678.478.444.318.666.821.666 1.509v5.708c.125.084.24.126.347.126.266 0 .497-.15.692-.453 1.954-2.582 3.011-4.308 3.17-5.18 0-.017.019-.059.054-.126.125-.251.329-.47.613-.654.284-.184.533-.31.746-.377a.554.554 0 0 1 .24-.05h4.13l.266.025c.355 0 .63.16.826.478.07.1.12.21.146.327.027.117.045.234.054.352.009.117.013.184.013.2v.177c-.124.687-.44 1.42-.946 2.2-.506.78-1.15 1.622-1.931 2.528-.782.905-1.27 1.5-1.466 1.785-.16.201-.24.386-.24.553 0 .135.071.286.213.453l3.89 4.627c.213.269.32.562.32.88 0 .386-.16.705-.48.956-.32.252-.701.394-1.145.428l-.453.025h-4.05a.855.855 0 0 0-.106.012.862.862 0 0 1-.107.013c-.39 0-.755-.16-1.092-.478-.125-.134-.96-1.123-2.505-2.967a1.387 1.387 0 0 0-.373-.327c-.07.268-.164.654-.28 1.157-.115.503-.2.863-.253 1.081l-.08.427c-.177.587-.55.94-1.119 1.057l-.373.025h-2.61c-1.475 0-2.945-.637-4.41-1.911-1.466-1.275-2.784-2.922-3.957-4.942-1.172-2.02-2.264-4.372-3.277-7.054A1.916 1.916 0 0 1 1 5.338Zm16.013 6.513c-.373 0-.71-.096-1.013-.29-.302-.192-.453-.456-.453-.791V4.987c0-.336-.089-.575-.266-.717-.178-.143-.489-.214-.933-.214l-1.518.05c-.764 0-1.341.126-1.732.378.781.352 1.172.922 1.172 1.71v4.426a1.5 1.5 0 0 1-.533 1.044 1.59 1.59 0 0 1-1.066.414c-.532 0-.94-.243-1.225-.729C8.06 9.371 7.03 7.493 6.356 5.716l-.24-.654-3.544-.025c-.231 0-.36.013-.386.038-.027.025-.04.096-.04.213 0 .151.017.31.053.478l.56 1.409c1.491 3.638 3.112 6.505 4.862 8.6 1.75 2.096 3.468 3.144 5.155 3.144h2.665c.106 0 .186-.03.24-.088.053-.06.097-.172.133-.34l.053-.251.506-2.213c.142-.302.267-.503.373-.604a.975.975 0 0 1 .693-.277c.426 0 .861.243 1.305.73l2.265 2.716c.142.218.293.327.453.327h4.396c.533 0 .8-.126.8-.378a.466.466 0 0 0-.08-.251l-3.864-4.552c-.302-.352-.453-.73-.453-1.131 0-.403.142-.788.427-1.157.23-.336.679-.893 1.345-1.673a37.63 37.63 0 0 0 1.745-2.187c.498-.68.826-1.296.986-1.849l.08-.327a.371.371 0 0 1-.027-.163.574.574 0 0 0-.026-.189h-4.183c-.267.1-.48.252-.64.453l-.16.478c-.444 1.156-1.607 2.942-3.49 5.356a1.892 1.892 0 0 1-1.305.503Z"/></symbol><symbol id="icon-youtube"><path d="m17.85 10.793-5.236-3.491a.655.655 0 0 0-1.014.545v6.982a.654.654 0 0 0 1.014.546l5.237-3.491a.655.655 0 0 0 0-1.091Zm-4.94 2.814V9.07l3.403 2.27-3.404 2.268Zm12.48-8.563a2.4 2.4 0 0 0-1.452-1.637C20.218 1.978 14.251 2 14 2c-.25 0-6.218-.022-9.938 1.407A2.4 2.4 0 0 0 2.61 5.044C2.327 6.113 2 8.076 2 11.338c0 3.262.327 5.226.61 6.295a2.4 2.4 0 0 0 1.452 1.636c3.72 1.43 9.687 1.407 9.938 1.407h.076c.753 0 6.317-.043 9.862-1.407a2.4 2.4 0 0 0 1.451-1.636c.284-1.07.611-3.033.611-6.295s-.327-5.225-.61-6.294Zm-1.266 12.261a1.09 1.09 0 0 1-.655.742c-3.49 1.342-9.404 1.32-9.469 1.32-.066 0-5.978.022-9.47-1.32a1.09 1.09 0 0 1-.654-.742c-.261-1.003-.567-2.847-.567-5.967 0-3.12.306-4.963.567-5.967a1.09 1.09 0 0 1 .655-.742C8.02 3.287 13.935 3.31 14 3.31c.066 0 5.978-.022 9.47 1.32a1.092 1.092 0 0 1 .654.742c.262 1.004.567 2.847.567 5.967 0 3.12-.305 4.964-.567 5.967Z"/></symbol><symbol id="steps-item-1"><g fill="none"><path fill="#68B738" d="M0 0h60v60H0z"/><g clip-path="url(#a)"><path fill="#68B738" d="M15 14h30v32H15z"/><path d="M42.844 16.767c-.1-.45-.48-.767-.912-.767h-.005c-4.938.033-16.945.916-21.793 8.38-2.518 3.878-2.735 8.913-.644 14.965.016.047.048.079.07.122-.747 1.973-1.037 3.286-1.044 3.323-.11.54.214 1.072.72 1.188a.88.88 0 0 0 .197.022c.433 0 .822-.321.916-.79.02-.102 2.409-10.373 10.854-16.378.431-.306.547-.927.26-1.387-.288-.46-.87-.585-1.3-.277-4.79 3.405-7.739 8.008-9.473 11.656-1.242-4.578-.916-8.377.986-11.305 3.743-5.764 12.622-7.154 17.982-7.448-1.153 1.801-2.413 5.103-2.413 10.929 0 3.12-.83 5.522-2.465 7.14-2.62 2.591-6.88 2.834-9.993 2.584-.518-.045-.967.371-1.006.922-.04.55.347 1.03.863 1.072.623.051 1.29.082 1.981.082 3.17 0 6.87-.663 9.43-3.194 2.034-2.011 3.065-4.906 3.065-8.605 0-9.099 3.216-11.096 3.232-11.105.39-.209.594-.677.492-1.129Z" fill="#fff"/></g></g></symbol><symbol id="steps-item-2"><g fill="none"><path fill="#68B738" d="M0 0h60v60H0z"/><path d="M28.375 16c-1.631 0-2.9 1.36-2.9 3.081 0 1.722 1.269 3.082 2.9 3.082s2.9-1.36 2.9-3.082c0-1.722-1.269-3.081-2.9-3.081Zm0 1.178c.997 0 1.722.843 1.722 1.903 0 .997-.789 1.903-1.722 1.903-.997 0-1.722-.842-1.722-1.903 0-.997.78-1.903 1.722-1.903ZM17.5 40.741c0 1.178.408 2.175 1.36 2.99.996.852 2.174.78 2.174.78h19.032c.779 0 1.812-.381 2.628-1.45.843-.997.788-2.357.788-2.357V23.486c0-.435-.109-.599-.743-.599s-.689.272-.689.59v17.218c-.018.3-.072 1.088-.743 1.722-.734.625-1.45.544-1.45.544s-18.125 0-19.031-.027c-.344-.064-.906-.19-1.45-.906-.508-.725-.408-1.632-.408-1.632V23.177c0-.462-.235-.634-.725-.634s-.743.172-.743.58v17.618Zm16.313-16.313c-1.088.236-2.176.38-4.26 2.356-2.084 1.994-3.625 1.904-5.166 1.813-1.54-.09-3.171-1.54-3.443-1.903-.336-.354-.906-.118-1.088.118-.154.235-.154.643.109.996 1.269 1.179 2.447 2.085 4.712 2.266 2.266.218 4.441-.807 5.891-2.266 1.45-1.45 2.175-1.721 3.263-1.903 2.628-.417 4.168.617 5.075 1.27.997 1.087 1.268.778 1.54.47.544-.716-.226-1.268-1.087-1.903-1.813-1.178-3.535-1.631-5.528-1.269l-.019-.045Zm-9.063 7.16c-1.178 0-2.084.996-2.084 2.265 0 1.269.906 2.266 2.084 2.266s2.084-.997 2.084-2.266c0-1.269-.906-2.266-2.084-2.266Zm11.781.779c-1.54 0-2.81 1.36-2.81 2.99 0 1.632 1.27 2.991 2.81 2.991s2.81-1.36 2.81-2.99c0-1.632-1.27-2.991-2.81-2.991Zm0 1.45c.798 0 1.45.698 1.45 1.54 0 .861-.652 1.541-1.45 1.541-.797 0-1.45-.698-1.45-1.54 0-.861.653-1.541 1.45-1.541Z" fill="#fff"/></g></symbol><symbol id="steps-item-3"><g fill="none"><path fill="#68B738" d="M0 0h60v60H0z"/><path fill-rule="evenodd" clip-rule="evenodd" d="M36.117 15.076a1 1 0 0 1 1.09.217c.909.908 2.097 2.878 3.059 5.918C41.237 24.28 42 28.508 42 34a1 1 0 0 1-1 1h-3.5v9a1 1 0 1 1-2 0V16a1 1 0 0 1 .617-.924ZM37.5 33h2.491c-.086-4.816-.786-8.512-1.632-11.186-.278-.88-.57-1.642-.859-2.295V33ZM23.5 15a1 1 0 0 1 1 1v28a1 1 0 1 1-2 0V16a1 1 0 0 1 1-1Z" fill="#fff"/><path fill-rule="evenodd" clip-rule="evenodd" d="M19 15a1 1 0 0 1 1 1v5.5c0 .557.192 1.315.7 1.917.48.566 1.315 1.083 2.8 1.083a1 1 0 1 1 0 2c-2.015 0-3.43-.733-4.326-1.792A5.068 5.068 0 0 1 18 21.5V16a1 1 0 0 1 1-1Z" fill="#fff"/><path fill-rule="evenodd" clip-rule="evenodd" d="M28 15a1 1 0 0 0-1 1v5.5a3.07 3.07 0 0 1-.7 1.917c-.48.566-1.315 1.083-2.8 1.083a1 1 0 0 0 0 2c2.014 0 3.43-.733 4.326-1.792A5.068 5.068 0 0 0 29 21.5V16a1 1 0 0 0-1-1Z" fill="#fff"/></g></symbol><symbol id="steps-item-4"><g fill="none"><path fill="#68B738" d="M0 0h60v60H0z"/><path d="M23.12 15c-1.066 0-1.066 1.583 0 1.583h6.668v1.604c-6.827.433-12.225 6.227-12.225 13.298 0 4.01 1.75 7.63 4.512 10.069.48.422.544 1.171.107 1.636l-1.536 1.551c-.747.686.362 1.752 1.034 1.003l2.006-2.037a1.164 1.164 0 0 1 1.312-.211 12.785 12.785 0 0 0 11.105.063c.427-.211.96-.127 1.301.211l1.942 1.974c.683.633 1.664-.317 1.046-1.003l-1.451-1.477c-.448-.454-.384-1.204.106-1.636a13.467 13.467 0 0 0 3.415-4.583 13.335 13.335 0 0 0 1.194-5.57c0-7.071-5.43-12.876-12.268-13.288v-1.604h6.667c1.067 0 1.067-1.583 0-1.583H23.121Zm-4.117 16.475c0-6.533 5.195-11.82 11.606-11.82 6.4 0 11.596 5.287 11.596 11.82 0 6.543-5.195 11.841-11.596 11.841-6.4 0-11.606-5.298-11.606-11.841Zm10.796-8.095c0-1.098 1.664-1.098 1.664 0v8.633a.84.84 0 0 1-.25.597.858.858 0 0 1-.604.247.816.816 0 0 1-.57-.23.798.798 0 0 1-.24-.561V23.38Zm-4.993 2.617c.308 0 .604-.12.822-.337a1.144 1.144 0 0 0 0-1.627 1.17 1.17 0 0 0-.822-.337c-.288.028-.555.16-.75.372a1.143 1.143 0 0 0 0 1.547c.195.212.462.344.75.372v.01Zm11.596 0c.308 0 .604-.12.822-.337a1.144 1.144 0 0 0 0-1.627 1.17 1.17 0 0 0-.822-.337c-.288.028-.555.16-.75.372a1.144 1.144 0 0 0 0 1.547c.195.212.462.344.75.372v.01ZM25.969 38.588c0 1.53-2.326 1.53-2.326 0s2.326-1.53 2.326 0Zm4.64 3.44a1.176 1.176 0 0 0 .893-.293 1.153 1.153 0 0 0 .381-.851 1.14 1.14 0 0 0-.38-.852 1.167 1.167 0 0 0-.894-.293c-.288.027-.555.16-.75.371a1.143 1.143 0 0 0 0 1.547c.195.212.462.344.75.372Zm-8.118-10.384a1.139 1.139 0 0 1-.297.883 1.163 1.163 0 0 1-.86.377 1.173 1.173 0 0 1-.86-.377 1.147 1.147 0 0 1-.298-.883c.028-.285.162-.55.376-.742a1.17 1.17 0 0 1 1.564 0c.214.193.348.457.375.742Zm17.388 1.15a1.173 1.173 0 0 0 .894-.294 1.152 1.152 0 0 0 .38-.851 1.14 1.14 0 0 0-.38-.852 1.164 1.164 0 0 0-.894-.293c-.287.027-.554.16-.749.371a1.144 1.144 0 0 0 0 1.547c.194.212.462.345.75.372Zm-2.314 5.805c0 1.52-2.326 1.52-2.326-.01 0-1.531 2.326-1.531 2.326 0v.01Z" fill="#fff"/></g></symbol></svg>